<?xml version="1.0" encoding="utf-8"?>
<!-- Generator: Adobe Illustrator 25.0.0, SVG Export Plug-In . SVG Version: 6.00 Build 0)  -->
<svg version="1.1" id="图层_1" xmlns="http://www.w3.org/2000/svg" xmlns:xlink="http://www.w3.org/1999/xlink" x="0px" y="0px"
	 viewBox="0 0 276.244 15.215" style="enable-background:new 0 0 276.244 15.215;" xml:space="preserve">
<g>
	<g>
		<g>
			<path style="fill:#89A473;" d="M81.076,11.965c-30.546,0-56.543-1.554-81.076-4.822l0.053-0.398
				c27.405,3.649,56.643,5.161,92.013,4.754L92.07,11.9C88.34,11.943,84.675,11.965,81.076,11.965z"/>
		</g>
		<g>
			<path style="fill:#89A473;" d="M22.712,7.592c-1.699,1.446-3.972,1.675-3.972,1.675C18.549,8.529,23,3.336,24.541,5.264
				C24.909,5.649,24.409,6.15,22.712,7.592z"/>
		</g>
		<g>
			<path style="fill:#89A473;" d="M74.016,10.135c-1.432,1.417-3.461,1.772-3.461,1.772s0.52-1.725,1.952-3.129
				C75.087,6.69,77.12,7.599,74.016,10.135z"/>
		</g>
		<g>
			<path style="fill:#89A473;" d="M23.756,11.318c-1.285-1.521-3.236-2.077-3.236-2.077s0.333,1.744,1.617,3.265
				C24.49,14.802,26.617,14.086,23.756,11.318z"/>
		</g>
		<g>
			<path style="fill:#89A473;" d="M58.462,12.877c-1.251-1.329-3.14-1.68-3.14-1.68C55.673,15.183,62.555,17,58.462,12.877z"/>
		</g>
	</g>
	<g>
		<g>
			<path style="fill:#89A473;" d="M92.07,11.9l-0.004-0.402c20.198-0.22,40.655-1.894,60.438-3.512
				c10.345-0.846,21.041-1.721,31.572-2.378l0.025,0.402c-10.527,0.656-21.222,1.531-31.564,2.377
				C132.747,10.007,112.283,11.681,92.07,11.9z"/>
		</g>
		<g>
			<path style="fill:#89A473;" d="M114.619,9.104c-1.484,1.657-3.704,2.188-3.704,2.188C111.47,6.61,119.442,3.927,114.619,9.104z"
				/>
		</g>
		<g>
			<path style="fill:#89A473;" d="M165.948,5.479c-1.308,1.528-3.291,2.083-3.291,2.083s0.354-1.772,1.662-3.302
				C166.708,1.952,168.849,2.701,165.948,5.479z"/>
		</g>
		<g>
			<path style="fill:#89A473;" d="M116.165,12.642c-1.479-1.31-3.49-1.617-3.49-1.617s0.571,1.688,2.052,3.025
				C117.367,15.986,119.373,14.972,116.165,12.642z"/>
		</g>
		<g>
			<path style="fill:#89A473;" d="M150.746,9.769c-1.389-1.183-3.309-1.323-3.309-1.323C148.208,12.32,155.266,13.448,150.746,9.769
				z"/>
		</g>
	</g>
	<g>
		<g>
			<path style="fill:#89A473;" d="M184.102,6.011l-0.026-0.402c29.318-1.942,59.467-2.087,92.168-0.443l-0.021,0.402
				C243.537,3.923,213.403,4.068,184.102,6.011z"/>
		</g>
		<g>
			<path style="fill:#89A473;" d="M206.647,2.858c-1.52,1.645-3.736,2.176-3.736,2.176c-0.296-0.745,3.51-6.454,5.293-4.701
				C208.621,0.678,208.168,1.22,206.647,2.858z"/>
		</g>
		<g>
			<path style="fill:#89A473;" d="M258.24,3.008c-1.468,1.39-3.498,1.732-3.498,1.732c-0.223-0.692,3.55-5.583,5.052-3.927
				C260.148,1.14,259.708,1.618,258.24,3.008z"/>
		</g>
		<g>
			<path style="fill:#89A473;" d="M208.124,6.435c-1.445-1.373-3.452-1.664-3.452-1.664c-0.211,0.663,3.526,5.451,4.976,3.827
				C209.992,8.275,209.568,7.804,208.124,6.435z"/>
		</g>
		<g>
			<path style="fill:#89A473;" d="M242.683,5.727c-1.27-1.303-3.17-1.614-3.17-1.614C239.969,8.081,246.811,9.768,242.683,5.727z"/>
		</g>
	</g>
</g>
</svg>
